<svg width="39" height="25" viewBox="0 0 39 25" fill="none" xmlns="http://www.w3.org/2000/svg">
<g clip-path="url(#clip0_455_2883)">
<path d="M17.2728 0.00708469C17.2734 0.562085 17.3179 1.02704 17.2543 1.4761C17.2275 1.66713 17.0047 1.87236 16.8218 1.98754C15.9354 2.55144 14.9729 3.00242 14.1465 3.64926C11.4726 5.74398 9.88945 8.49959 9.80608 12.0777C9.78311 13.0927 10.1574 13.3473 11.009 12.9495C13.4708 11.805 16.1205 12.4723 17.5356 14.5928C19.079 16.9073 18.8651 19.9915 17.0202 22.0154C14.6648 24.5997 10.7829 24.6817 8.10338 22.2164C6.49888 20.74 5.73494 18.8328 5.54274 16.662C4.89835 9.39166 8.53926 3.39396 15.1756 0.754217C15.8323 0.493549 16.5051 0.278865 17.2728 0.00708469Z" fill="white"/>
</g>
<g clip-path="url(#clip1_455_2883)">
<path d="M31.2728 0.00708469C31.2734 0.562085 31.3179 1.02704 31.2543 1.4761C31.2275 1.66713 31.0047 1.87236 30.8218 1.98754C29.9354 2.55144 28.9729 3.00242 28.1465 3.64926C25.4726 5.74398 23.8894 8.49959 23.8061 12.0777C23.7831 13.0927 24.1574 13.3473 25.009 12.9495C27.4708 11.805 30.1205 12.4723 31.5356 14.5928C33.079 16.9073 32.8651 19.9915 31.0202 22.0154C28.6648 24.5997 24.7829 24.6817 22.1034 22.2164C20.4989 20.74 19.7349 18.8328 19.5427 16.662C18.8983 9.39166 22.5393 3.39396 29.1756 0.754217C29.8323 0.493549 30.5051 0.278865 31.2728 0.00708469Z" fill="white"/>
</g>
<defs>
<clipPath id="clip0_455_2883">
<rect width="24" height="24" fill="white" transform="translate(24.0244 24) rotate(179.942)"/>
</clipPath>
<clipPath id="clip1_455_2883">
<rect width="24" height="24" fill="white" transform="translate(38.0244 24) rotate(179.942)"/>
</clipPath>
</defs>
</svg>
