<svg width="121" height="130" viewBox="0 0 121 130" fill="none" xmlns="http://www.w3.org/2000/svg">
<path d="M11.5586 121.956V123.825H0.837891V121.956H11.5586ZM7.19727 117.391V128.777H5.20996V117.391H7.19727Z" fill="#E5E5E5"/>
<path d="M38.895 94.6201V96.4893H28.1743V94.6201H38.895ZM34.5337 90.0547V101.441H32.5464V90.0547H34.5337Z" fill="#E5E5E5"/>
<path d="M66.2319 12.6104V14.4795H55.5112V12.6104H66.2319ZM61.8706 8.04492V19.4316H59.8833V8.04492H61.8706Z" fill="#E5E5E5"/>
<path d="M66.2319 39.9463V41.8154H55.5112V39.9463H66.2319ZM61.8706 35.3809V46.7676H59.8833V35.3809H61.8706Z" fill="#E5E5E5"/>
<path d="M66.2319 67.2832V69.1523H55.5112V67.2832H66.2319ZM61.8706 62.7178V74.1045H59.8833V62.7178H61.8706Z" fill="#6246E5"/>
<path d="M66.2319 94.6201V96.4893H55.5112V94.6201H66.2319ZM61.8706 90.0547V101.441H59.8833V90.0547H61.8706Z" fill="#E5E5E5"/>
<path d="M66.2319 121.956V123.825H55.5112V121.956H66.2319ZM61.8706 117.391V128.777H59.8833V117.391H61.8706Z" fill="#E5E5E5"/>
<path d="M93.5684 12.6104V14.4795H82.8477V12.6104H93.5684ZM89.207 8.04492V19.4316H87.2197V8.04492H89.207Z" fill="#E5E5E5"/>
<path d="M93.5684 39.9463V41.8154H82.8477V39.9463H93.5684ZM89.207 35.3809V46.7676H87.2197V35.3809H89.207Z" fill="#E5E5E5"/>
<path d="M93.5684 67.2832V69.1523H82.8477V67.2832H93.5684ZM89.207 62.7178V74.1045H87.2197V62.7178H89.207Z" fill="#E5E5E5"/>
<path d="M93.5684 94.6201V96.4893H82.8477V94.6201H93.5684ZM89.207 90.0547V101.441H87.2197V90.0547H89.207Z" fill="#E5E5E5"/>
<path d="M93.5684 121.956V123.825H82.8477V121.956H93.5684ZM89.207 117.391V128.777H87.2197V117.391H89.207Z" fill="#E5E5E5"/>
<path d="M120.905 12.6104V14.4795H110.184V12.6104H120.905ZM116.543 8.04492V19.4316H114.556V8.04492H116.543Z" fill="#FF7152"/>
<path d="M120.905 39.9463V41.8154H110.184V39.9463H120.905ZM116.543 35.3809V46.7676H114.556V35.3809H116.543Z" fill="#E5E5E5"/>
<path d="M120.905 67.2832V69.1523H110.184V67.2832H120.905ZM116.543 62.7178V74.1045H114.556V62.7178H116.543Z" fill="#E5E5E5"/>
<path d="M120.905 94.6201V96.4893H110.184V94.6201H120.905ZM116.543 90.0547V101.441H114.556V90.0547H116.543Z" fill="#E5E5E5"/>
<path d="M120.905 121.956V123.825H110.184V121.956H120.905ZM116.543 117.391V128.777H114.556V117.391H116.543Z" fill="#E5E5E5"/>
</svg>
