<svg width="22" height="26" viewBox="0 0 22 26" fill="none" xmlns="http://www.w3.org/2000/svg">
<path d="M17.7975 13.8893C17.7679 10.6663 20.4952 9.09826 20.6199 9.02526C19.0753 6.82226 16.6812 6.52127 15.84 6.49726C13.8292 6.29027 11.8788 7.67426 10.8546 7.67426C9.80987 7.67426 8.23258 6.51726 6.53262 6.55126C4.34507 6.58426 2.29858 7.82326 1.17618 9.74726C-1.14017 13.6703 0.587381 19.4353 2.80663 22.6063C3.91676 24.1593 5.21396 25.8933 6.91187 25.8323C8.57298 25.7653 9.19347 24.7963 11.198 24.7963C13.1842 24.7963 13.7669 25.8323 15.4985 25.7933C17.2813 25.7653 18.4037 24.2333 19.475 22.6663C20.7579 20.8863 21.2731 19.1333 21.2935 19.0433C21.2516 19.0293 17.8312 17.7523 17.7975 13.8893Z" fill="black"/>
<path d="M14.5264 4.41126C15.4198 3.31827 16.0311 1.83127 15.8614 0.322266C14.5683 0.378266 12.9512 1.19727 12.0199 2.26627C11.196 3.20827 10.46 4.75226 10.6501 6.20427C12.1027 6.31027 13.5941 5.48727 14.5264 4.41126Z" fill="black"/>
</svg>
