<svg width="70" height="127" viewBox="0 0 70 127" fill="none" xmlns="http://www.w3.org/2000/svg">
<path d="M23.9268 94.5879C23.4612 94.2909 23.3242 93.6726 23.6211 93.207V93.2061L21.8301 92.0645C21.533 92.5298 20.9157 92.6671 20.4502 92.3701L16.9736 90.1523C16.5082 89.8553 16.3721 89.237 16.6689 88.7715V88.7705L14.8779 87.6289C14.5994 88.0652 14.0395 88.2124 13.5869 87.9844L13.498 87.9346L10.0215 85.7158C9.55615 85.4188 9.41812 84.8005 9.71484 84.335L7.9248 83.1934C7.62759 83.6584 7.01029 83.795 6.54492 83.498L4.80664 82.3896L4.65137 82.2979C4.28667 82.0986 3.91218 82.0066 3.5498 82C3.04801 81.991 2.64012 81.614 2.57715 81.1309C2.01436 81.2915 1.49417 81.5939 1.07129 82.0088C1.4615 82.3066 1.58368 82.8531 1.33594 83.293L1.26074 83.4355C1.09663 83.7753 1.00003 84.1682 1 84.6055L1 86.9424L0.995117 87.0449C0.943986 87.5493 0.517825 87.9424 0 87.9424L0 90.6172C0.552285 90.6172 1 91.0649 1 91.6172L1 96.291L0.995117 96.3936C0.943965 96.8979 0.51781 97.291 0 97.291L0 99.9658C0.552285 99.9658 1 100.414 1 100.966L1 103.303L1.00488 103.473C1.05434 104.262 1.44692 104.978 2.05859 105.427L2.19336 105.52L3.76758 106.523C4.23303 106.82 4.36995 107.439 4.07324 107.904L5.53613 108.839C5.83314 108.373 6.4524 108.236 6.91797 108.533M23.9268 94.5879L24.4639 93.7441H24.4648V93.7451L23.9268 94.5879ZM23.9268 94.5879L27.4033 96.8057L27.4922 96.8564C27.9447 97.0842 28.5057 96.9373 28.7842 96.501V96.5L30.5742 97.6416V97.6426C30.2772 98.1081 30.4135 98.7263 30.8789 99.0234L32.6172 100.133C33.984 101.005 35.6946 101.059 37.1045 100.296L37.3828 100.133L39.1211 99.0234C39.5865 98.7263 39.7228 98.1081 39.4258 97.6426L39.4248 97.6416L41.2148 96.5L41.2158 96.501C41.4943 96.9373 42.0553 97.0842 42.5078 96.8564L42.5977 96.8057L46.0732 94.5879M46.0732 94.5879L45.5352 93.7451L45.5342 93.7441H45.5352L46.0732 94.5879ZM46.0732 94.5879C46.5388 94.2909 46.6758 93.6726 46.3789 93.207L46.3779 93.2061L48.1689 92.0645C48.4474 92.501 49.0083 92.649 49.4609 92.4209L49.5498 92.3701L53.0264 90.1523C53.4918 89.8553 53.6279 89.237 53.3311 88.7715L53.3301 88.7705L55.1211 87.6289C55.4181 88.0944 56.0364 88.2313 56.502 87.9346M56.502 87.9346L55.9639 87.0908H55.9648L56.502 87.9346ZM56.502 87.9346L59.9785 85.7158C60.444 85.4187 60.5812 84.8005 60.2842 84.335L62.0742 83.1934C62.3528 83.6298 62.9136 83.7771 63.3662 83.5488L63.4551 83.498L65.1934 82.3896C65.5545 82.1593 65.9287 82.0401 66.2939 82.0088L66.4502 82C66.9516 81.991 67.3584 81.6145 67.4219 81.1318C67.9847 81.2924 68.5048 81.594 68.9277 82.0088C68.538 82.3067 68.4164 82.8533 68.6641 83.293C68.873 83.6638 69 84.1056 69 84.6055V86.9424C69 87.4947 69.4477 87.9424 70 87.9424V90.6172C69.4477 90.6172 69 91.0649 69 91.6172V96.291C69 96.8433 69.4477 97.291 70 97.291V99.9658C69.4477 99.9658 69 100.414 69 100.966V103.303C69 104.158 68.5967 104.946 67.9414 105.427L67.8066 105.52L66.2324 106.523C65.7671 106.82 65.6294 107.439 65.9258 107.904L64.4629 108.839C64.1659 108.373 63.5476 108.236 63.082 108.533M63.082 108.533L63.6201 109.376H63.6191L63.082 108.533ZM63.082 108.533L59.9316 110.543C59.4953 110.821 59.3483 111.382 59.5762 111.835L59.627 111.924L58.1621 112.857C57.8835 112.422 57.3234 112.274 56.8711 112.502L56.7822 112.553L53.6318 114.562C53.1663 114.86 53.0302 115.478 53.3271 115.943L51.8623 116.877C51.5651 116.412 50.9477 116.276 50.4824 116.572M50.4824 116.572L51.0195 117.415H51.0186L50.4824 116.572ZM50.4824 116.572L47.332 118.582C46.8668 118.879 46.7302 119.496 47.0264 119.962L45.5615 120.896C45.2829 120.461 44.7237 120.314 44.2715 120.541L44.1816 120.592L41.0322 122.602C40.5671 122.898 40.4297 123.516 40.7256 123.981L39.2617 124.916C38.983 124.48 38.4231 124.333 37.9707 124.561L37.8818 124.611L36.3066 125.616C35.5548 126.096 34.6204 126.126 33.8457 125.706L33.6934 125.616L32.1182 124.611L32.0293 124.561C31.5768 124.332 31.0159 124.48 30.7373 124.916L29.2734 123.981C29.5697 123.516 29.4331 122.898 28.9678 122.602M28.9678 122.602L28.4297 123.444V123.443L28.9678 122.602ZM28.9678 122.602L25.8184 120.592L25.7285 120.541C25.2762 120.313 24.716 120.461 24.4375 120.896L22.9727 119.962C23.2692 119.496 23.1334 118.879 22.668 118.582M22.668 118.582L22.1299 119.425H22.1289L22.668 118.582ZM22.668 118.582L19.5176 116.572M19.5176 116.572L18.9805 117.415H18.9795L19.5176 116.572ZM19.5176 116.572C19.0521 116.276 18.4338 116.412 18.1367 116.877L16.6719 115.943C16.9689 115.478 16.8338 114.86 16.3682 114.562L13.2178 112.553L13.1289 112.502C12.6765 112.274 12.1155 112.421 11.8369 112.857L10.3721 111.924H10.373C10.6699 111.458 10.5338 110.84 10.0684 110.543L6.91797 108.533M6.91797 108.533L6.37988 109.376H6.37891L6.91797 108.533ZM23.9268 54.0879C23.4612 53.7909 23.3242 53.1726 23.6211 52.707V52.7061L21.8301 51.5645C21.533 52.0298 20.9157 52.1671 20.4502 51.8701L16.9736 49.6523C16.5082 49.3553 16.3721 48.737 16.6689 48.2715V48.2705L14.8779 47.1289C14.5994 47.5652 14.0395 47.7124 13.5869 47.4844L13.498 47.4346L10.0215 45.2158L9.93848 45.1572C9.54068 44.843 9.43653 44.2716 9.71484 43.835L7.9248 42.6934C7.62759 43.1584 7.0103 43.295 6.54492 42.998L4.80664 41.8896L4.65137 41.7979C4.28667 41.5986 3.91218 41.5066 3.5498 41.5C3.04834 41.491 2.64053 41.1145 2.57715 40.6318C2.01446 40.7925 1.49411 41.094 1.07129 41.5088C1.46151 41.8066 1.58367 42.3531 1.33594 42.793L1.26074 42.9355C1.09663 43.2753 1.00003 43.6682 1 44.1055L1 46.4424L0.995117 46.5449C0.943996 47.0493 0.517833 47.4424 0 47.4424L0 50.1172C0.552285 50.1172 1 50.5649 1 51.1172L1 55.791L0.995117 55.8936C0.943974 56.3979 0.517817 56.791 0 56.791L0 59.4658C0.552285 59.4658 1 59.9135 1 60.4658L1 62.8027L1.00488 62.9727C1.05434 63.7618 1.44693 64.4777 2.05859 64.9268L2.19336 65.0195L3.76758 66.0244C4.23303 66.3214 4.36993 66.9388 4.07324 67.4043L5.53613 68.3389C5.83314 67.8733 6.4524 67.7363 6.91797 68.0332M23.9268 54.0879L24.4639 53.2441H24.4648V53.2451L23.9268 54.0879ZM23.9268 54.0879L27.4023 56.3057C27.8679 56.6027 28.4871 56.4665 28.7842 56.001V56L30.5742 57.1416V57.1426C30.2772 57.6081 30.4135 58.2263 30.8789 58.5234L32.6172 59.6328C33.984 60.5048 35.6946 60.5588 37.1045 59.7959L37.3828 59.6328L39.1211 58.5234C39.5865 58.2263 39.7228 57.6081 39.4258 57.1426L39.4248 57.1416L41.2148 56L41.2158 56.001C41.4943 56.4373 42.0553 56.5842 42.5078 56.3564L42.5977 56.3057L46.0732 54.0879M46.0732 54.0879L45.5352 53.2451L45.5342 53.2441H45.5352L46.0732 54.0879ZM46.0732 54.0879C46.5388 53.7909 46.6758 53.1726 46.3789 52.707L46.3779 52.7061L48.1689 51.5645C48.4474 52.001 49.0083 52.149 49.4609 51.9209L49.5498 51.8701L53.0264 49.6523C53.4918 49.3553 53.6279 48.737 53.3311 48.2715L53.3301 48.2705L55.1211 47.1289C55.4181 47.5944 56.0364 47.7313 56.502 47.4346M56.502 47.4346L55.9639 46.5908H55.9648L56.502 47.4346ZM56.502 47.4346L59.9785 45.2158C60.444 44.9187 60.5812 44.3005 60.2842 43.835L62.0742 42.6934C62.3528 43.1298 62.9136 43.2771 63.3662 43.0488L63.4551 42.998L65.1934 41.8896C65.5545 41.6593 65.9287 41.5401 66.2939 41.5088L66.4502 41.5C66.9516 41.491 67.3584 41.1145 67.4219 40.6318C67.9847 40.7924 68.5048 41.094 68.9277 41.5088C68.538 41.8067 68.4165 42.3533 68.6641 42.793C68.873 43.1638 69 43.6056 69 44.1055V46.4424C69 46.9947 69.4477 47.4424 70 47.4424V50.1172C69.4477 50.1172 69 50.5649 69 51.1172V55.791C69 56.3433 69.4477 56.791 70 56.791V59.4658C69.4477 59.4658 69 59.9135 69 60.4658V62.8027C69 63.6582 68.5967 64.4457 67.9414 64.9268L67.8066 65.0195L66.2324 66.0244C65.7671 66.3213 65.6295 66.9388 65.9258 67.4043L64.4629 68.3389C64.1659 67.8733 63.5476 67.7363 63.082 68.0332M63.082 68.0332L63.6201 68.876H63.6191L63.082 68.0332ZM63.082 68.0332L59.9316 70.043C59.4953 70.3214 59.3484 70.8824 59.5762 71.335L59.627 71.4238L58.1621 72.3574C57.8834 71.9216 57.3234 71.775 56.8711 72.0029L56.7822 72.0527L53.6318 74.0625C53.1663 74.3595 53.0302 74.9778 53.3271 75.4434L51.8623 76.377C51.5651 75.9121 50.9477 75.7757 50.4824 76.0723M50.4824 76.0723L51.0195 76.915H51.0186L50.4824 76.0723ZM50.4824 76.0723L47.332 78.082C46.8668 78.3789 46.7302 78.9964 47.0264 79.4619L45.5615 80.3965C45.2829 79.961 44.7237 79.8135 44.2715 80.041L44.1816 80.0918L41.0322 82.1016C40.5671 82.3983 40.4297 83.016 40.7256 83.4814L39.2617 84.416C38.983 83.9802 38.4231 83.8325 37.9707 84.0605L37.8818 84.1113L36.3066 85.1162C35.5548 85.5958 34.6204 85.6258 33.8457 85.2061L33.6934 85.1162L32.1182 84.1113L32.0293 84.0605C31.5768 83.8325 31.0159 83.9799 30.7373 84.416L29.2734 83.4814C29.5697 83.016 29.4331 82.3984 28.9678 82.1016M28.9678 82.1016L28.4297 82.9443V82.9434L28.9678 82.1016ZM28.9678 82.1016L25.8184 80.0918L25.7285 80.041C25.2762 79.8134 24.716 79.9607 24.4375 80.3965L22.9727 79.4619C23.2692 78.9964 23.1333 78.3789 22.668 78.082M22.668 78.082L22.1299 78.9248H22.1289L22.668 78.082ZM22.668 78.082L19.5176 76.0723M19.5176 76.0723L18.9805 76.915H18.9795L19.5176 76.0723ZM19.5176 76.0723C19.0522 75.7756 18.4338 75.9118 18.1367 76.377L16.6719 75.4434C16.9689 74.9778 16.8338 74.3596 16.3682 74.0625L13.2178 72.0527L13.1289 72.0029C12.6764 71.7749 12.1155 71.9213 11.8369 72.3574L10.3721 71.4238H10.373C10.6698 70.9583 10.5338 70.34 10.0684 70.043L6.91797 68.0332M6.91797 68.0332L6.37988 68.876H6.37891L6.91797 68.0332ZM23.9268 13.5879C23.4612 13.2909 23.3242 12.6726 23.6211 12.207V12.2061L21.8301 11.0645C21.533 11.5298 20.9157 11.6671 20.4502 11.3701L16.9736 9.15234C16.5082 8.85529 16.3721 8.23701 16.6689 7.77148V7.77051L14.8779 6.62891C14.5994 7.06523 14.0395 7.21239 13.5869 6.98437L13.498 6.93457L10.0215 4.7168L9.93848 4.65723C9.54068 4.34298 9.43652 3.77156 9.71484 3.33496L7.9248 2.19336C7.62759 2.65843 7.0103 2.79496 6.54492 2.49805L4.80664 1.38965L4.65137 1.29785C4.28668 1.09859 3.91218 1.00656 3.5498 1L3.44727 0.993164C2.99343 0.938689 2.63615 0.581244 2.57715 0.131836C2.01447 0.292538 1.4941 0.593976 1.07129 1.00879C1.46151 1.30659 1.58366 1.85311 1.33594 2.29297L1.26074 2.43555C1.09663 2.77528 1.00004 3.16819 1 3.60547V5.94238L0.995117 6.04492C0.944008 6.54928 0.517842 6.94238 0 6.94238L0 9.61719C0.552285 9.61719 1 10.0649 1 10.6172L1 15.291L0.995117 15.3936C0.943985 15.8979 0.517824 16.291 0 16.291L0 18.9658C0.552285 18.9658 1 19.4135 1 19.9658L1 22.3027L1.00488 22.4727C1.05433 23.2618 1.44693 23.9777 2.05859 24.4268L2.19336 24.5195L3.76758 25.5244C4.23302 25.8214 4.36992 26.4388 4.07324 26.9043L5.53613 27.8389C5.83314 27.3733 6.4524 27.2363 6.91797 27.5332M23.9268 13.5879L24.4639 12.7441H24.4648V12.7451L23.9268 13.5879ZM23.9268 13.5879L27.4023 15.8057C27.8679 16.1027 28.4871 15.9665 28.7842 15.501V15.5L30.5742 16.6416V16.6426C30.2772 17.1081 30.4135 17.7263 30.8789 18.0234L32.6172 19.1328C33.984 20.0048 35.6946 20.0588 37.1045 19.2959L37.3828 19.1328L39.1211 18.0234C39.5865 17.7263 39.7228 17.1081 39.4258 16.6426L39.4248 16.6416L41.2148 15.5L41.2158 15.501C41.4943 15.9373 42.0553 16.0842 42.5078 15.8564L42.5977 15.8057L46.0732 13.5879M46.0732 13.5879L45.5352 12.7451L45.5342 12.7441H45.5352L46.0732 13.5879ZM46.0732 13.5879C46.5388 13.2909 46.6758 12.6726 46.3789 12.207L46.3779 12.2061L48.1689 11.0645C48.4474 11.501 49.0083 11.649 49.4609 11.4209L49.5498 11.3701L53.0264 9.15234C53.4918 8.85529 53.6279 8.23701 53.3311 7.77148L53.3301 7.77051L55.1211 6.62891C55.4181 7.09437 56.0364 7.23129 56.502 6.93457M56.502 6.93457L55.9639 6.09082H55.9648L56.502 6.93457ZM56.502 6.93457L59.9785 4.7168C60.4441 4.41975 60.5812 3.80056 60.2842 3.33496L62.0742 2.19336C62.3528 2.62982 62.9136 2.77712 63.3662 2.54883L63.4551 2.49805L65.1934 1.38965C65.5545 1.15927 65.9287 1.04006 66.2939 1.00879L66.4502 1C66.9516 0.990962 67.3584 0.614479 67.4219 0.131836C67.9847 0.292408 68.5048 0.594004 68.9277 1.00879C68.5646 1.28635 68.4349 1.77945 68.6191 2.20117L68.6641 2.29297C68.873 2.66377 69 3.10558 69 3.60547V5.94238C69 6.49467 69.4477 6.94238 70 6.94238V9.61719C69.4477 9.61719 69 10.0649 69 10.6172V15.291C69 15.8433 69.4477 16.291 70 16.291V18.9658C69.4477 18.9658 69 19.4135 69 19.9658V22.3027C69 23.1582 68.5967 23.9457 67.9414 24.4268L67.8066 24.5195L66.2324 25.5244C65.7671 25.8213 65.6295 26.4388 65.9258 26.9043L64.4629 27.8389C64.1659 27.3734 63.5476 27.2363 63.082 27.5332M63.082 27.5332L63.6201 28.376H63.6191L63.082 27.5332ZM63.082 27.5332L59.9316 29.543C59.4953 29.8214 59.3484 30.3824 59.5762 30.835L59.627 30.9238L58.1621 31.8574C57.8834 31.4217 57.3234 31.275 56.8711 31.5029L56.7822 31.5527L53.6318 33.5625C53.1663 33.8595 53.0302 34.4778 53.3271 34.9434L51.8623 35.877C51.5651 35.4122 50.9477 35.2757 50.4824 35.5723M50.4824 35.5723L51.0195 36.415H51.0186L50.4824 35.5723ZM50.4824 35.5723L47.332 37.582C46.8668 37.8788 46.7302 38.4964 47.0264 38.9619L45.5615 39.8965C45.2829 39.461 44.7237 39.3135 44.2715 39.541L44.1816 39.5918L41.0322 41.6016C40.5671 41.8983 40.4297 42.516 40.7256 42.9814L39.2617 43.916C38.983 43.4802 38.423 43.3326 37.9707 43.5605L37.8818 43.6113L36.3066 44.6162C35.5548 45.0958 34.6204 45.1258 33.8457 44.7061L33.6934 44.6162L32.1182 43.6113L32.0293 43.5605C31.5768 43.3325 31.0159 43.4799 30.7373 43.916L29.2734 42.9814C29.5697 42.516 29.4331 41.8984 28.9678 41.6016M28.9678 41.6016L28.4297 42.4443V42.4434L28.9678 41.6016ZM28.9678 41.6016L25.8184 39.5918L25.7285 39.541C25.2762 39.3135 24.716 39.4607 24.4375 39.8965L22.9727 38.9619C23.2692 38.4964 23.1333 37.8789 22.668 37.582L19.5176 35.5723M19.5176 35.5723L18.9805 36.415H18.9795L19.5176 35.5723ZM19.5176 35.5723C19.0522 35.2756 18.4338 35.4118 18.1367 35.877L16.6719 34.9434C16.9689 34.4778 16.8338 33.8596 16.3682 33.5625L13.2178 31.5527L13.1289 31.5029C12.6764 31.2749 12.1155 31.4213 11.8369 31.8574L10.3721 30.9238H10.373C10.6698 30.4583 10.5338 29.84 10.0684 29.543L6.91797 27.5332M6.91797 27.5332L6.37988 28.376H6.37891L6.91797 27.5332Z" stroke="#00B470" stroke-width="2" stroke-linecap="round" stroke-dasharray="4 4"/>
</svg>
